<svg xmlns="http://www.w3.org/2000/svg" viewBox="0 0 1440 900" role="img" aria-label="喵呜的桌面潮玩小世界摆件盘">
  <defs>
    <linearGradient id="wood" x1="0" y1="0" x2="0" y2="1"><stop offset="0" stop-color="#d9b47a"/><stop offset="1" stop-color="#b98358"/></linearGradient>
    <linearGradient id="felt" x1="0" y1="0" x2="1" y2="1"><stop offset="0" stop-color="#e8f1d7"/><stop offset="1" stop-color="#bed8c5"/></linearGradient>
    <linearGradient id="water" x1="0" y1="0" x2="0" y2="1"><stop offset="0" stop-color="#8dd8d0"/><stop offset="1" stop-color="#4ba6b1"/></linearGradient>
    <linearGradient id="cloth" x1="0" y1="0" x2="1" y2="1"><stop offset="0" stop-color="#f7e8bb"/><stop offset="1" stop-color="#ddc17e"/></linearGradient>
    <filter id="soft-shadow" x="-20%" y="-20%" width="140%" height="160%"><feDropShadow dx="0" dy="9" stdDeviation="7" flood-color="#3d5960" flood-opacity=".24"/></filter>
    <filter id="small-shadow" x="-30%" y="-30%" width="160%" height="180%"><feDropShadow dx="0" dy="5" stdDeviation="4" flood-color="#394c4b" flood-opacity=".28"/></filter>
    <pattern id="grain" width="140" height="70" patternUnits="userSpaceOnUse"><path d="M-20 22c38-12 62 14 124 0s88 4 132-6M-30 58c34 7 77-11 120-1s79 8 126-5" fill="none" stroke="#9d6b4e" stroke-opacity=".18" stroke-width="3"/></pattern>
  </defs>

  <!-- A wooden desktop and a shallow felt display tray. -->
  <rect width="1440" height="900" fill="url(#wood)"/><rect width="1440" height="900" fill="url(#grain)"/>
  <rect x="28" y="24" width="1384" height="852" rx="44" fill="#a97552" opacity=".42"/>
  <rect x="38" y="28" width="1364" height="830" rx="42" fill="#f0dfb5" stroke="#8f654f" stroke-width="9" filter="url(#soft-shadow)"/>
  <rect x="58" y="49" width="1324" height="790" rx="33" fill="url(#felt)" stroke="#fff3d4" stroke-width="7"/>
  <path d="M82 111h1276M82 769h1276" stroke="#7ba9a0" stroke-opacity=".18" stroke-width="2" stroke-dasharray="5 12"/>

  <!-- Waterside shelf: a raised foam island with two tiny houses. -->
  <path d="M300 59h823l76 59-37 99-109 30-41 67-169 10-73-46-185 28-108-68-147-19-76-76z" fill="url(#water)" stroke="#388d96" stroke-width="8" filter="url(#small-shadow)"/>
  <path d="M366 103h274M721 139h249M1028 103h101" fill="none" stroke="#d8f0dc" stroke-opacity=".7" stroke-width="21" stroke-linecap="round"/>
  <path d="M400 185c77-31 145 29 219 0s151-29 224 1 142 27 224-6" fill="none" stroke="#318f9a" stroke-width="10" stroke-linecap="round"/>
  <path d="M450 221c54-17 94 17 147 0M854 218c63-23 111 18 181-3" fill="none" stroke="#daf2d8" stroke-width="7" stroke-linecap="round"/>
  <g filter="url(#small-shadow)"><path d="M505 80h78v55h-78z" fill="#d49a65" stroke="#875b52" stroke-width="6"/><path d="m493 80 51-43 51 43z" fill="#f0b56e" stroke="#875b52" stroke-width="6"/><path d="M1000 119h67v49h-67z" fill="#d49a65" stroke="#875b52" stroke-width="6"/><path d="m990 119 39-35 39 35z" fill="#f0b56e" stroke="#875b52" stroke-width="6"/></g>
  <g fill="#4e9169" stroke="#3e735e" stroke-width="5"><path d="M294 117h29v79h-29z"/><circle cx="308" cy="103" r="43"/><path d="M1136 91h28v85h-28z"/><circle cx="1150" cy="80" r="42"/></g>

  <!-- Low whisper market: three toy stalls with awnings and loose trinkets. -->
  <path d="M61 258h208l52-45 154 34 28 94-38 89 64 57-77 107-183 15-63-54-145 4z" fill="#efb87b" stroke="#c77362" stroke-width="9" filter="url(#small-shadow)"/>
  <g filter="url(#small-shadow)"><path d="M88 330h118v90H88z" fill="#f8d99f" stroke="#a8645b" stroke-width="6"/><path d="M225 303h120v117H225z" fill="#f8d99f" stroke="#a8645b" stroke-width="6"/><path d="M365 337h91v83h-91z" fill="#f8d99f" stroke="#a8645b" stroke-width="6"/><path d="M75 330h144l-20-39H96z" fill="#e86e77" stroke="#a24f61" stroke-width="6"/><path d="M210 303h145l-19-40H229z" fill="#e86e77" stroke="#a24f61" stroke-width="6"/><path d="M351 337h119l-17-37h-86z" fill="#e86e77" stroke="#a24f61" stroke-width="6"/><g fill="#fff0b5" stroke="#a24f61" stroke-width="4"><circle cx="122" cy="374" r="11"/><circle cx="171" cy="374" r="11"/><circle cx="265" cy="359" r="12"/><circle cx="318" cy="359" r="12"/><circle cx="395" cy="374" r="11"/><circle cx="431" cy="374" r="11"/></g></g>
  <g fill="#79b66d" stroke="#568860" stroke-width="4"><path d="M91 541h48v64H91z"/><path d="M116 491c35 0 57 26 61 58H55c5-32 26-58 61-58z"/><path d="M408 501h40v61h-40z"/><path d="M428 465c31 0 48 25 51 51h-102c3-26 20-51 51-51z"/></g>
  <g fill="#f1ca79" stroke="#a76d53" stroke-width="4"><circle cx="245" cy="592" r="13"/><circle cx="279" cy="604" r="9"/><rect x="156" y="210" width="39" height="22" rx="7"/></g>

  <!-- Backlit grove: plush green hill and chunky trees. -->
  <path d="m1017 267 103-63 143 28 118 104-29 166-101 65-157-16-103-94z" fill="#b7cf83" stroke="#659369" stroke-width="9" filter="url(#small-shadow)"/>
  <g fill="#5b9a68" stroke="#3e735d" stroke-width="8" filter="url(#small-shadow)"><path d="M1060 304h35v133h-35z"/><circle cx="1077" cy="285" r="64"/><path d="M1202 319h39v156h-39z"/><circle cx="1221" cy="292" r="75"/><path d="M1324 379h32v115h-32z"/><circle cx="1340" cy="363" r="58"/></g>
  <g fill="#dda16f" stroke="#956453" stroke-width="5" filter="url(#small-shadow)"><path d="M1050 463h42v36h-42z"/><path d="M1190 512h51v39h-51z"/><path d="M1304 522h43v34h-43z"/></g>
  <g fill="#ecd993" stroke="#9c855c" stroke-width="3"><circle cx="1005" cy="405" r="11"/><circle cx="1166" cy="372" r="13"/><circle cx="1284" cy="314" r="10"/><circle cx="1274" cy="576" r="12"/></g>

  <!-- A padded route ribbon with stitched edges and oversized toy markers. -->
  <path d="M674 247h123l36 113-56 67 58 93-56 87 55 106-64 125H620l-48-125 62-106-54-88 57-91-50-81z" fill="url(#cloth)" stroke="#bd9362" stroke-width="11" filter="url(#small-shadow)"/>
  <path d="M727 275 739 388l-34 50 35 82-36 80 35 114-23 112" fill="none" stroke="#c49b67" stroke-width="17" stroke-linecap="round" stroke-dasharray="10 28"/>
  <g fill="#3e9da1" stroke="#f7f0d0" stroke-width="6" filter="url(#small-shadow)"><path d="m685 316 44-1-21-43z"/><path d="m709 482 44-2-21-42z"/><path d="m689 647 44-1-21-43z"/></g>
  <g fill="#e36b74" stroke="#fff0c3" stroke-width="6" filter="url(#small-shadow)"><circle cx="633" cy="394" r="14"/><circle cx="815" cy="449" r="14"/><circle cx="651" cy="563" r="14"/><circle cx="791" cy="731" r="14"/></g>

  <!-- Home display base: a real little dock for the first cat form. -->
  <path d="M327 650h217l39-57h278l42 57h223v190H327z" fill="#c9e0d1" stroke="#6d9c94" stroke-width="9" filter="url(#small-shadow)"/>
  <rect x="421" y="681" width="598" height="122" rx="20" fill="#8bc7ba" stroke="#4c8786" stroke-width="9"/><rect x="488" y="704" width="462" height="72" rx="13" fill="#243e4a"/><rect x="525" y="719" width="388" height="43" rx="9" fill="#9be4d2"/><rect x="702" y="730" width="37" height="24" rx="5" fill="#edbd6d"/>
  <path d="M365 693h46v92h-46zM1005 693h46v92h-46z" fill="#db6871"/><g fill="#5e7b75"><rect x="340" y="804" width="58" height="27" rx="8"/><rect x="1017" y="804" width="58" height="27" rx="8"/><rect x="448" y="814" width="92" height="20" rx="8"/><rect x="889" y="814" width="92" height="20" rx="8"/></g>
  <path d="M598 634h246l-36-58H635z" fill="#e5b36e" stroke="#9e6b58" stroke-width="8" filter="url(#small-shadow)"/><path d="M635 576h174v59H635z" fill="#f5e0a9" stroke="#9e6b58" stroke-width="8"/><circle cx="722" cy="611" r="14" fill="#e36b74"/>

  <!-- Stitched bridges join the pieces, making the map feel assembled by hand. -->
  <g fill="none" stroke-linecap="round"><path d="M453 395h151M839 395h168M476 565h122M842 565h169M722 678v-59" stroke="#f7e8bd" stroke-width="28"/><path d="M453 395h151M839 395h168M476 565h122M842 565h169M722 678v-59" stroke="#a87960" stroke-width="7" stroke-dasharray="18 18"/></g>
  <g fill="#d76f70" stroke="#fff1c6" stroke-width="4"><circle cx="248" cy="612" r="12"/><circle cx="1146" cy="616" r="12"/><circle cx="921" cy="178" r="10"/></g>
</svg>
